<?xml version="1.0" encoding="UTF-8"?>
<svg width="55px" height="55px" viewBox="0 0 55 55" version="1.1" xmlns="http://www.w3.org/2000/svg" xmlns:xlink="http://www.w3.org/1999/xlink">
    <title>Shield Icon</title>
    <g id="Page-1" stroke="none" stroke-width="1" fill="none" fill-rule="evenodd">
        <g id="final_center_cropped" transform="translate(-150.000000, -739.000000)" stroke="#FFFFFF" stroke-width="2.71861764">
            <g id="Group-22" transform="translate(82.000000, 686.000000)">
                <g id="warnings-and-danger-white" transform="translate(68.000000, 53.000000)">
                    <path d="M37.1825295,18.6218821 C37.1648967,18.611938 36.4537092,18.1047899 35.2644785,17.4972066 C33.447326,16.5704183 30.5075553,15.4059665 27.1328435,15.4 L27.131864,15.4 C23.6425393,15.4059665 20.6057885,16.6539486 18.8092076,17.5946586 C17.7914062,18.1276613 17.1820969,18.5542624 17.1027495,18.6079604 C17.0978515,18.6109436 17.0841372,18.6208877 17.0831576,18.6218821 C17.0802188,18.623871 17.0792392,18.6258598 17.0763004,18.6278486 C16.9450344,18.7253006 16.8666667,18.8814226 16.8666667,19.0464944 L16.8666667,26.9967869 C16.9274017,36.0657885 26.8820667,40.9731923 26.9045974,41.0129686 C26.9751284,41.0487673 27.0544758,41.0666667 27.131864,41.0666667 L27.1328435,41.0666667 L27.1338231,41.0666667 C27.2112113,41.0666667 27.2895791,41.0487673 27.3610897,41.0129686 C27.3826408,40.9731923 37.3382854,36.0657885 37.4,26.9967869 L37.4,19.0464944 C37.4,18.877445 37.3186934,18.7183397 37.1825295,18.6218821 Z" id="Stroke-267"></path>
                    <path d="M8.8,27.8666667 C8.8,18.6161403 15.4703145,10.9459703 24.2,9.53333333" id="Stroke-268"></path>
                    <path d="M27.8666667,46.2 C18.5381679,46.2 10.8210187,39.1885011 9.53333333,30.0666667" id="Stroke-269"></path>
                    <path d="M46.2,27.8666667 C46.2,37.1266416 39.5263393,44.8028705 30.8,46.2" id="Stroke-270"></path>
                    <path d="M27.8666667,8.8 C37.0932723,8.8 44.7494769,15.463766 46.2,24.2" id="Stroke-271"></path>
                    <path d="M5.86666667,20.5333333 C7.8133946,13.5743502 13.0795053,8.04827665 19.8,5.86666667" id="Stroke-272"></path>
                    <path d="M20.5333333,49.1333333 C13.5743502,47.1866054 8.04827665,41.9204947 5.86666667,35.2" id="Stroke-273"></path>
                    <path d="M49.1333333,34.4666667 C47.1866054,41.4256498 41.9204947,46.9517234 35.2,49.1333333" id="Stroke-274"></path>
                    <path d="M34.4666667,5.86666667 C41.4256498,7.8133946 46.9517234,13.0795053 49.1333333,19.8" id="Stroke-275"></path>
                    <line x1="27.5" y1="0" x2="27.5" y2="8.06666667" id="Stroke-276"></line>
                    <line x1="27.5" y1="46.2" x2="27.5" y2="55" id="Stroke-277"></line>
                    <line x1="8.8" y1="27.5" x2="0" y2="27.5" id="Stroke-278"></line>
                    <line x1="55" y1="27.5" x2="46.2" y2="27.5" id="Stroke-279"></line>
                </g>
            </g>
        </g>
    </g>
</svg>