<?xml version="1.0" encoding="UTF-8"?>
<svg width="585px" height="36.344388px" viewBox="0 0 585 36.344388" version="1.1" xmlns="http://www.w3.org/2000/svg" xmlns:xlink="http://www.w3.org/1999/xlink">
    <title>Group Copy</title>
    <defs>
        <linearGradient x1="4.16333634e-14%" y1="100%" x2="50%" y2="100%" id="linearGradient-1">
            <stop stop-color="#FFFFFF" offset="0.00546328671%"></stop>
            <stop stop-color="#D8D8D8" stop-opacity="0" offset="100%"></stop>
        </linearGradient>
    </defs>
    <g id="2023-Web" stroke="none" stroke-width="1" fill="none" fill-rule="evenodd">
        <g id="Group-Copy">
            <g id="Group-Copy-3" transform="translate(1.957, 0)" fill="#FFFFFF" fill-rule="nonzero">
                <g id="10-ANNIVERSARY" transform="translate(0, 1.0781)">
                    <polygon id="Path" points="7.4296875 17.296875 4.04296875 17.296875 4.04296875 4.2421875 0 5.49609375 0 2.7421875 7.06640625 0.2109375 7.4296875 0.2109375"></polygon>
                    <path d="M28.9570312,10.2421875 C28.9570312,12.6015625 28.46875,14.40625 27.4921875,15.65625 C26.515625,16.90625 25.0859375,17.53125 23.203125,17.53125 C21.34375,17.53125 19.921875,16.9179688 18.9375,15.6914062 C17.953125,14.4648438 17.4492188,12.7070312 17.4257812,10.4179688 L17.4257812,7.27734375 C17.4257812,4.89453125 17.9199219,3.0859375 18.9082031,1.8515625 C19.8964844,0.6171875 21.3203125,0 23.1796875,0 C25.0390625,0 26.4609375,0.611328125 27.4453125,1.83398438 C28.4296875,3.05664062 28.9335938,4.8125 28.9570312,7.1015625 L28.9570312,10.2421875 Z M25.5703125,6.796875 C25.5703125,5.3828125 25.3769531,4.35351562 24.9902344,3.70898438 C24.6035156,3.06445312 24,2.7421875 23.1796875,2.7421875 C22.3828125,2.7421875 21.7949219,3.04882812 21.4160156,3.66210938 C21.0371094,4.27539062 20.8359375,5.234375 20.8125,6.5390625 L20.8125,10.6875 C20.8125,12.078125 21.0019531,13.1113281 21.3808594,13.7871094 C21.7597656,14.4628906 22.3671875,14.8007812 23.203125,14.8007812 C24.03125,14.8007812 24.6289062,14.4765625 24.9960938,13.828125 C25.3632812,13.1796875 25.5546875,12.1875 25.5703125,10.8515625 L25.5703125,6.796875 Z" id="Shape"></path>
                    <path d="M87.6445312,13.78125 L81.4804688,13.78125 L80.3085938,17.296875 L76.5703125,17.296875 L82.921875,0.234375 L86.1796875,0.234375 L92.5664062,17.296875 L88.828125,17.296875 L87.6445312,13.78125 Z M82.4296875,10.9335938 L86.6953125,10.9335938 L84.5507812,4.546875 L82.4296875,10.9335938 Z" id="Shape"></path>
                    <polygon id="Path" points="112.535156 17.296875 109.019531 17.296875 102.175781 6.0703125 102.175781 17.296875 98.6601562 17.296875 98.6601562 0.234375 102.175781 0.234375 109.03125 11.484375 109.03125 0.234375 112.535156 0.234375"></polygon>
                    <polygon id="Path" points="133.980469 17.296875 130.464844 17.296875 123.621094 6.0703125 123.621094 17.296875 120.105469 17.296875 120.105469 0.234375 123.621094 0.234375 130.476562 11.484375 130.476562 0.234375 133.980469 0.234375"></polygon>
                    <polygon id="Path" points="145.289062 17.296875 141.773438 17.296875 141.773438 0.234375 145.289062 0.234375"></polygon>
                    <polygon id="Path" points="159.351562 13.0664062 163.21875 0.234375 167.132812 0.234375 161.191406 17.296875 157.523438 17.296875 151.605469 0.234375 155.507812 0.234375"></polygon>
                    <polygon id="Path" points="183.503906 9.90234375 176.753906 9.90234375 176.753906 14.4726562 184.675781 14.4726562 184.675781 17.296875 173.238281 17.296875 173.238281 0.234375 184.652344 0.234375 184.652344 3.08203125 176.753906 3.08203125 176.753906 7.1484375 183.503906 7.1484375"></polygon>
                    <path d="M197.554688,11.0507812 L194.753906,11.0507812 L194.753906,17.296875 L191.238281,17.296875 L191.238281,0.234375 L197.578125,0.234375 C199.59375,0.234375 201.148438,0.68359375 202.242188,1.58203125 C203.335938,2.48046875 203.882812,3.75 203.882812,5.390625 C203.882812,6.5546875 203.630859,7.52539062 203.126953,8.30273438 C202.623047,9.08007812 201.859375,9.69921875 200.835938,10.1601562 L204.527344,17.1328125 L204.527344,17.296875 L200.753906,17.296875 L197.554688,11.0507812 Z M194.753906,8.203125 L197.589844,8.203125 C198.472656,8.203125 199.15625,7.97851562 199.640625,7.52929688 C200.125,7.08007812 200.367188,6.4609375 200.367188,5.671875 C200.367188,4.8671875 200.138672,4.234375 199.681641,3.7734375 C199.224609,3.3125 198.523438,3.08203125 197.578125,3.08203125 L194.753906,3.08203125 L194.753906,8.203125 Z" id="Shape"></path>
                    <path d="M219.902344,12.8203125 C219.902344,12.15625 219.667969,11.6464844 219.199219,11.2910156 C218.730469,10.9355469 217.886719,10.5605469 216.667969,10.1660156 C215.449219,9.77148438 214.484375,9.3828125 213.773438,9 C211.835938,7.953125 210.867188,6.54296875 210.867188,4.76953125 C210.867188,3.84765625 211.126953,3.02539062 211.646484,2.30273438 C212.166016,1.58007812 212.912109,1.015625 213.884766,0.609375 C214.857422,0.203125 215.949219,0 217.160156,0 C218.378906,0 219.464844,0.220703125 220.417969,0.662109375 C221.371094,1.10351562 222.111328,1.7265625 222.638672,2.53125 C223.166016,3.3359375 223.429688,4.25 223.429688,5.2734375 L219.914062,5.2734375 C219.914062,4.4921875 219.667969,3.88476562 219.175781,3.45117188 C218.683594,3.01757812 217.992188,2.80078125 217.101562,2.80078125 C216.242188,2.80078125 215.574219,2.98242188 215.097656,3.34570313 C214.621094,3.70898438 214.382812,4.1875 214.382812,4.78125 C214.382812,5.3359375 214.662109,5.80078125 215.220703,6.17578125 C215.779297,6.55078125 216.601562,6.90234375 217.6875,7.23046875 C219.6875,7.83203125 221.144531,8.578125 222.058594,9.46875 C222.972656,10.359375 223.429688,11.46875 223.429688,12.796875 C223.429688,14.2734375 222.871094,15.4316406 221.753906,16.2714844 C220.636719,17.1113281 219.132812,17.53125 217.242188,17.53125 C215.929688,17.53125 214.734375,17.2910156 213.65625,16.8105469 C212.578125,16.3300781 211.755859,15.671875 211.189453,14.8359375 C210.623047,14 210.339844,13.03125 210.339844,11.9296875 L213.867188,11.9296875 C213.867188,13.8125 214.992188,14.7539062 217.242188,14.7539062 C218.078125,14.7539062 218.730469,14.5839844 219.199219,14.2441406 C219.667969,13.9042969 219.902344,13.4296875 219.902344,12.8203125 Z" id="Path"></path>
                    <path d="M239.941406,13.78125 L233.777344,13.78125 L232.605469,17.296875 L228.867188,17.296875 L235.21875,0.234375 L238.476562,0.234375 L244.863281,17.296875 L241.125,17.296875 L239.941406,13.78125 Z M234.726562,10.9335938 L238.992188,10.9335938 L236.847656,4.546875 L234.726562,10.9335938 Z" id="Shape"></path>
                    <path d="M257.273438,11.0507812 L254.472656,11.0507812 L254.472656,17.296875 L250.957031,17.296875 L250.957031,0.234375 L257.296875,0.234375 C259.3125,0.234375 260.867188,0.68359375 261.960938,1.58203125 C263.054688,2.48046875 263.601562,3.75 263.601562,5.390625 C263.601562,6.5546875 263.349609,7.52539062 262.845703,8.30273438 C262.341797,9.08007812 261.578125,9.69921875 260.554688,10.1601562 L264.246094,17.1328125 L264.246094,17.296875 L260.472656,17.296875 L257.273438,11.0507812 Z M254.472656,8.203125 L257.308594,8.203125 C258.191406,8.203125 258.875,7.97851562 259.359375,7.52929688 C259.84375,7.08007812 260.085938,6.4609375 260.085938,5.671875 C260.085938,4.8671875 259.857422,4.234375 259.400391,3.7734375 C258.943359,3.3125 258.242188,3.08203125 257.296875,3.08203125 L254.472656,3.08203125 L254.472656,8.203125 Z" id="Shape"></path>
                    <polygon id="Path" points="276.09375 7.921875 279.644531 0.234375 283.488281 0.234375 277.886719 11.109375 277.886719 17.296875 274.3125 17.296875 274.3125 11.109375 268.710938 0.234375 272.566406 0.234375"></polygon>
                </g>
                <g id="TH" transform="translate(37.5539, 0)">
                    <polygon id="Path" points="9.265625 1.8984375 5.78125 1.8984375 5.78125 11.375 3.4375 11.375 3.4375 1.8984375 0 1.8984375 0 0 9.265625 0"></polygon>
                    <polygon id="Path" points="23.059375 11.375 20.715625 11.375 20.715625 6.5 16.1453125 6.5 16.1453125 11.375 13.8015625 11.375 13.8015625 0 16.1453125 0 16.1453125 4.609375 20.715625 4.609375 20.715625 0 23.059375 0"></polygon>
                </g>
            </g>
            <rect id="Rectangle-Copy-2" fill="url(#linearGradient-1)" x="0" y="33.375" width="585" height="2.969388"></rect>
        </g>
    </g>
</svg>