<?xml version="1.0" encoding="UTF-8"?>
<svg width="252px" height="55px" viewBox="0 0 252 55" version="1.1" xmlns="http://www.w3.org/2000/svg" xmlns:xlink="http://www.w3.org/1999/xlink">
    <title>cybersecurity</title>
    <g id="Page-1" stroke="none" stroke-width="1" fill="none" fill-rule="evenodd">
        <g id="Artboard" transform="translate(-741.000000, -2895.000000)" fill="#FFFFFF">
            <g id="cybersecurity" transform="translate(741.000000, 2895.000000)">
                <path d="M103.787505,34.6106771 C104.829172,34.6302083 105.799224,34.4365234 106.697661,34.0296224 C107.596099,33.6227214 108.325265,33.0400391 108.885161,32.2815755 C109.445057,31.523112 109.780343,30.6523438 109.891021,29.6692708 L109.891021,29.6692708 L107.049224,29.6888021 C106.879953,30.5221354 106.533273,31.1617839 106.009185,31.6077474 C105.485096,32.0537109 104.786854,32.2604167 103.914458,32.2278646 C103.282948,32.2083333 102.791411,31.9951172 102.439849,31.5882161 C102.088286,31.1813151 101.896229,30.5481771 101.863677,29.6888021 C101.837635,29.0117188 101.928781,27.9928385 102.137114,26.6321615 C102.351958,25.2324219 102.773508,24.1679688 103.401763,23.4388021 C104.030018,22.7096354 104.832427,22.3613281 105.808989,22.3938802 C106.564198,22.4199219 107.120838,22.641276 107.478911,23.0579427 C107.836984,23.4746094 108.016021,24.1321615 108.016021,25.030599 L108.016021,25.030599 L110.867583,25.0403646 C110.782948,23.4713542 110.309315,22.2457682 109.446685,21.3636068 C108.584054,20.4814453 107.417062,20.0273438 105.945708,20.0013021 C104.591541,19.9752604 103.387114,20.3398438 102.332427,21.0950521 C101.583729,21.6354167 100.93757,22.3678385 100.39395,23.2923177 C99.8503305,24.2167969 99.4727263,25.2747396 99.2611378,26.4661458 C99.0495492,27.6575521 98.9665414,28.6536458 99.0121143,29.4544271 C99.0641977,30.4765625 99.2904346,31.3798828 99.6908253,32.164388 C100.091216,32.9488932 100.639718,33.5478516 101.336333,33.961263 C102.032948,34.3746745 102.850005,34.5911458 103.787505,34.6106771 Z M117.322661,34.4153646 L118.182036,29.4153646 L124.392974,20.1966146 L121.111724,20.1966146 L117.137114,26.5833333 L115.408599,20.1966146 L112.391021,20.2063802 L115.340239,29.093099 L114.412505,34.4153646 L117.322661,34.4153646 Z M128.641021,34.4153646 C130.301177,34.4153646 131.611398,34.0426432 132.571685,33.2972005 C133.531971,32.5517578 134.057687,31.5084635 134.148833,30.1673177 C134.194406,29.438151 134.060942,28.805013 133.748442,28.2679036 C133.435942,27.7307943 132.996489,27.3645833 132.430083,27.1692708 C133.999093,26.5052083 134.829172,25.453776 134.920317,24.014974 C134.998442,22.8105469 134.624093,21.8763021 133.797271,21.2122396 C132.970448,20.5481771 131.733468,20.2128906 130.086333,20.2063802 L130.086333,20.2063802 L125.652739,20.1966146 L123.182036,34.4153646 L128.641021,34.4153646 Z M129.422271,26.1731771 L127.478911,26.1536458 L128.103911,22.5696615 L130.213286,22.5794271 C131.580474,22.5859375 132.182687,23.1621094 132.019927,24.3079427 C131.928781,24.8873698 131.653716,25.3398438 131.194732,25.6653646 C130.735747,25.9908854 130.144927,26.1601562 129.422271,26.1731771 L129.422271,26.1731771 Z M128.70938,32.0716146 L126.453521,32.061849 L127.127349,28.2239583 L129.822661,28.233724 C130.415109,28.2597656 130.836659,28.4371745 131.08731,28.7659505 C131.337961,29.0947266 131.417713,29.5520833 131.326567,30.1380208 C131.235422,30.7304688 130.952218,31.2008464 130.476958,31.5491536 C130.001698,31.8974609 129.412505,32.0716146 128.70938,32.0716146 L128.70938,32.0716146 Z M144.930083,34.4153646 L145.340239,32.061849 L138.933989,32.061849 L139.598052,28.2532552 L145.047271,28.2532552 L145.457427,25.9583333 L139.988677,25.9583333 L140.58438,22.5696615 L146.961333,22.5696615 L147.381255,20.1966146 L138.133208,20.1966146 L135.662505,34.4153646 L144.930083,34.4153646 Z M149.529692,34.4153646 L150.437896,29.2102865 L152.762114,29.2102865 L154.441802,34.4153646 L157.488677,34.4153646 L157.488677,34.2591146 L155.486724,28.4876302 C157.433338,27.7259115 158.475005,26.3684896 158.611724,24.4153646 C158.70938,23.09375 158.333403,22.061849 157.483794,21.3196615 C156.634185,20.577474 155.42162,20.2063802 153.846099,20.2063802 L153.846099,20.2063802 L149.139067,20.1966146 L146.668364,34.4153646 L149.529692,34.4153646 Z M152.976958,26.8567708 L150.848052,26.8372396 L151.590239,22.5696615 L154.031646,22.5794271 C154.669666,22.6054688 155.135161,22.797526 155.42813,23.155599 C155.721099,23.5136719 155.82201,24.0084635 155.730864,24.639974 C155.633208,25.3170573 155.338612,25.8525391 154.847075,26.2464193 C154.355539,26.6402995 153.732166,26.84375 152.976958,26.8567708 L152.976958,26.8567708 Z M164.344146,34.6204427 C165.333729,34.639974 166.240304,34.4869792 167.063872,34.1614583 C167.88744,33.8359375 168.538482,33.3688151 169.016997,32.7600911 C169.495513,32.1513672 169.764067,31.4270833 169.822661,30.5872396 C169.946359,28.8684896 169.047922,27.5338542 167.127349,26.5833333 L167.127349,26.5833333 L166.385161,26.2415365 L165.096099,25.7532552 C164.02188,25.3365885 163.54662,24.7734375 163.670317,24.0638021 C163.761463,23.5234375 164.047922,23.0986328 164.529692,22.789388 C165.011463,22.4801432 165.57787,22.3320312 166.228911,22.3450521 C166.892974,22.3580729 167.382883,22.5436198 167.698638,22.9016927 C168.014393,23.2597656 168.155995,23.7610677 168.123442,24.405599 L168.123442,24.405599 L170.975005,24.405599 C170.988026,23.077474 170.571359,22.0179036 169.725005,21.226888 C168.878651,20.4358724 167.768625,20.0273438 166.394927,20.0013021 C165.398833,19.9882812 164.471099,20.1559245 163.611724,20.5042318 C162.752349,20.8525391 162.085031,21.3326823 161.609771,21.9446615 C161.13451,22.5566406 160.874093,23.2597656 160.828521,24.0540365 C160.717843,25.766276 161.756255,27.1106771 163.943755,28.0872396 L163.943755,28.0872396 L165.828521,28.8391927 C166.726958,29.249349 167.107817,29.8417969 166.971099,30.6165365 C166.886463,31.124349 166.619536,31.53125 166.170317,31.8372396 C165.721099,32.1432292 165.148182,32.296224 164.451567,32.296224 C162.843495,32.2701823 162.085031,31.4856771 162.176177,29.9427083 L162.176177,29.9427083 L159.314849,29.9329427 C159.288807,30.811849 159.467843,31.593099 159.851958,32.2766927 C160.262114,33.0123698 160.861073,33.5820312 161.648833,33.9856771 C162.436593,34.3893229 163.335031,34.6009115 164.344146,34.6204427 Z M180.437896,34.4153646 L180.848052,32.061849 L174.441802,32.061849 L175.105864,28.2532552 L180.555083,28.2532552 L180.965239,25.9583333 L175.496489,25.9583333 L176.092192,22.5696615 L182.469146,22.5696615 L182.889067,20.1966146 L173.641021,20.1966146 L171.170317,34.4153646 L180.437896,34.4153646 Z M187.664458,34.6106771 C188.706125,34.6302083 189.676177,34.4365234 190.574614,34.0296224 C191.473052,33.6227214 192.202218,33.0400391 192.762114,32.2815755 C193.32201,31.523112 193.657297,30.6523438 193.767974,29.6692708 L193.767974,29.6692708 L190.926177,29.6888021 C190.756906,30.5221354 190.410226,31.1617839 189.886138,31.6077474 C189.362049,32.0537109 188.663807,32.2604167 187.791411,32.2278646 C187.159901,32.2083333 186.668364,31.9951172 186.316802,31.5882161 C185.965239,31.1813151 185.773182,30.5481771 185.74063,29.6888021 C185.714588,29.0117188 185.805734,27.9928385 186.014067,26.6321615 C186.228911,25.2324219 186.650461,24.1679688 187.278716,23.4388021 C187.906971,22.7096354 188.70938,22.3613281 189.685942,22.3938802 C190.441151,22.4199219 190.997791,22.641276 191.355864,23.0579427 C191.713937,23.4746094 191.892974,24.1321615 191.892974,25.030599 L191.892974,25.030599 L194.744536,25.0403646 C194.659901,23.4713542 194.186268,22.2457682 193.323638,21.3636068 C192.461008,20.4814453 191.294015,20.0273438 189.822661,20.0013021 C188.468495,19.9752604 187.264067,20.3398438 186.20938,21.0950521 C185.460682,21.6354167 184.814523,22.3678385 184.270903,23.2923177 C183.727284,24.2167969 183.349679,25.2747396 183.138091,26.4661458 C182.926502,27.6575521 182.843495,28.6536458 182.889067,29.4544271 C182.941151,30.4765625 183.167388,31.3798828 183.567778,32.164388 C183.968169,32.9488932 184.516672,33.5478516 185.213286,33.961263 C185.909901,34.3746745 186.726958,34.5911458 187.664458,34.6106771 Z M200.359771,34.6204427 C201.961333,34.6464844 203.302479,34.203776 204.383208,33.2923177 C205.463937,32.3808594 206.114979,31.140625 206.336333,29.5716146 L206.336333,29.5716146 L207.937896,20.1966146 L205.066802,20.1966146 L203.465239,29.5813802 C203.3155,30.453776 202.983468,31.124349 202.469146,31.593099 C201.954823,32.061849 201.294015,32.2832031 200.486724,32.2571615 C199.360422,32.218099 198.732166,31.671224 198.601958,30.6165365 C198.562896,30.297526 198.566151,29.9557292 198.611724,29.5911458 L198.611724,29.5911458 L200.203521,20.1966146 L197.342192,20.1966146 L195.750396,29.5813802 C195.639718,30.5514323 195.760161,31.4189453 196.111724,32.1839193 C196.463286,32.9488932 197.008534,33.5413411 197.747466,33.961263 C198.486398,34.3811849 199.357166,34.6009115 200.359771,34.6204427 Z M210.701567,34.4153646 L211.609771,29.2102865 L213.933989,29.2102865 L215.613677,34.4153646 L218.660552,34.4153646 L218.660552,34.2591146 L216.658599,28.4876302 C218.605213,27.7259115 219.64688,26.3684896 219.783599,24.4153646 C219.881255,23.09375 219.505278,22.061849 218.655669,21.3196615 C217.80606,20.577474 216.593495,20.2063802 215.017974,20.2063802 L215.017974,20.2063802 L210.310942,20.1966146 L207.840239,34.4153646 L210.701567,34.4153646 Z M214.148833,26.8567708 L212.019927,26.8372396 L212.762114,22.5696615 L215.203521,22.5794271 C215.841541,22.6054688 216.307036,22.797526 216.600005,23.155599 C216.892974,23.5136719 216.993885,24.0084635 216.902739,24.639974 C216.805083,25.3170573 216.510487,25.8525391 216.01895,26.2464193 C215.527414,26.6402995 214.904041,26.84375 214.148833,26.8567708 L214.148833,26.8567708 Z M223.367583,34.4153646 L225.828521,20.1966146 L222.967192,20.1966146 L220.506255,34.4153646 L223.367583,34.4153646 Z M231.971099,34.4153646 L234.02188,22.5696615 L238.24063,22.5696615 L238.660552,20.1966146 L227.410552,20.1966146 L226.99063,22.5696615 L231.160552,22.5696615 L229.109771,34.4153646 L231.971099,34.4153646 Z M244.275786,34.4153646 L245.135161,29.4153646 L251.346099,20.1966146 L248.064849,20.1966146 L244.090239,26.5833333 L242.361724,20.1966146 L239.344146,20.2063802 L242.293364,29.093099 L241.36563,34.4153646 L244.275786,34.4153646 Z" id="CYBERSECURITY" fill-rule="nonzero"></path>
                <rect id="Rectangle" x="77" y="0" width="2" height="55"></rect>
                <g id="Group-3-Copy" transform="translate(0.000000, 8.000000)">
                    <path d="M12.5469993,1.63060448e-13 L4.86923285,1.63060448e-13 L2.67558528,10.7023411 L10.7023411,10.7023411 C16.9841501,10.6496202 18.729097,7.5390876 18.729097,4.63943852 C18.729097,2.58332372 17.532562,1.63060448e-13 12.5469993,1.63060448e-13 Z" id="Fill-1"></path>
                    <path d="M33.0598198,1.63060448e-13 L25.3820534,1.63060448e-13 L23.1884058,10.7023411 L31.165306,10.7023411 C37.4969706,10.6496202 39.2419175,7.5390876 39.2419175,4.63943852 C39.2419175,2.58332372 38.0453825,1.63060448e-13 33.0598198,1.63060448e-13 Z" id="Fill-3"></path>
                    <path d="M9.87141403,15.1616499 L2.19364756,15.1616499 L2.42313292e-13,24.9721293 L7.97690023,24.9721293 C14.2587092,24.9721293 16.0535117,22.1066923 16.0535117,19.4355221 C16.0535117,17.5414197 14.8569767,15.1616499 9.87141403,15.1616499 Z" id="Fill-5"></path>
                    <path d="M30.3842345,15.1616499 L22.7064681,15.1616499 L20.5128205,24.9721293 L28.5395764,24.9721293 C34.7715297,24.9238018 36.5663322,22.0724802 36.5663322,19.4144686 C36.5663322,17.5296967 35.3697972,15.1616499 30.3842345,15.1616499 Z" id="Fill-7"></path>
                    <path d="M51.1067257,8.91861761 L43.8550309,8.91861761 L41.7837235,18.729097 L49.3174626,18.729097 C55.2498113,18.729097 56.9453735,15.8294479 56.9453735,13.1714363 C56.9453735,11.2866644 55.8153126,8.91861761 51.1067257,8.91861761 Z" id="Fill-9"></path>
                    <path d="M48.2214698,24.0802676 L40.5432047,24.0802676 L38.3500557,33.8907469 L46.326956,33.8907469 C52.6082663,33.8907469 54.4035674,30.9910979 54.4035674,28.3330862 C54.4035674,26.4487976 53.2070324,24.0802676 48.2214698,24.0802676 Z" id="Fill-12"></path>
                    <path d="M26.6830082,30.1895206 L19.0052418,30.1895206 L16.8115942,40 L24.7884944,40 C31.0703034,39.9511892 32.8651059,37.1003509 32.8651059,34.4423393 C32.8651059,32.5575674 31.6685709,30.1895206 26.6830082,30.1895206 Z" id="Fill-14"></path>
                </g>
            </g>
        </g>
    </g>
</svg>