<?xml version="1.0" encoding="UTF-8"?>
<svg width="295px" height="55px" viewBox="0 0 295 55" version="1.1" xmlns="http://www.w3.org/2000/svg" xmlns:xlink="http://www.w3.org/1999/xlink">
    <title>internet_of_things</title>
    <g id="Page-1" stroke="none" stroke-width="1" fill="none" fill-rule="evenodd">
        <g id="Artboard" transform="translate(-741.000000, -2979.000000)" fill="#000000">
            <g id="internet_of_things" transform="translate(741.000000, 2979.000000)">
                <path d="M101.861328,34.4152665 L104.322266,20.1965165 L101.460938,20.1965165 L99,34.4152665 L101.861328,34.4152665 Z M107.427734,34.4152665 L109.078125,24.9328446 L113.033203,34.4152665 L115.806641,34.4152665 L118.267578,20.1965165 L115.416016,20.1965165 L113.765625,29.6984696 L109.800781,20.1965165 L107.037109,20.1965165 L104.566406,34.4152665 L107.427734,34.4152665 Z M124.263672,34.4152665 L126.314453,22.5695634 L130.533203,22.5695634 L130.953125,20.1965165 L119.703125,20.1965165 L119.283203,22.5695634 L123.453125,22.5695634 L121.402344,34.4152665 L124.263672,34.4152665 Z M139.449219,34.4152665 L139.859375,32.0617509 L133.453125,32.0617509 L134.117188,28.2531571 L139.566406,28.2531571 L139.976562,25.9582352 L134.507812,25.9582352 L135.103516,22.5695634 L141.480469,22.5695634 L141.900391,20.1965165 L132.652344,20.1965165 L130.181641,34.4152665 L139.449219,34.4152665 Z M144.048828,34.4152665 L144.957031,29.2101884 L147.28125,29.2101884 L148.960938,34.4152665 L152.007812,34.4152665 L152.007812,34.2590165 L150.005859,28.4875321 C151.952474,27.7258134 152.994141,26.3683915 153.130859,24.4152665 C153.228516,23.0936519 152.852539,22.0617509 152.00293,21.3195634 C151.15332,20.5773759 149.940755,20.2062821 148.365234,20.2062821 L148.365234,20.2062821 L143.658203,20.1965165 L141.1875,34.4152665 L144.048828,34.4152665 Z M147.496094,26.8566727 L145.367188,26.8371415 L146.109375,22.5695634 L148.550781,22.579329 C149.188802,22.6053706 149.654297,22.7974279 149.947266,23.1555009 C150.240234,23.5135738 150.341146,24.0083654 150.25,24.6398759 C150.152344,25.3169592 149.857747,25.852441 149.366211,26.2463212 C148.874674,26.6402014 148.251302,26.8436519 147.496094,26.8566727 L147.496094,26.8566727 Z M156.529297,34.4152665 L158.179688,24.9328446 L162.134766,34.4152665 L164.908203,34.4152665 L167.369141,20.1965165 L164.517578,20.1965165 L162.867188,29.6984696 L158.902344,20.1965165 L156.138672,20.1965165 L153.667969,34.4152665 L156.529297,34.4152665 Z M176.734375,34.4152665 L177.144531,32.0617509 L170.738281,32.0617509 L171.402344,28.2531571 L176.851562,28.2531571 L177.261719,25.9582352 L171.792969,25.9582352 L172.388672,22.5695634 L178.765625,22.5695634 L179.185547,20.1965165 L169.9375,20.1965165 L167.466797,34.4152665 L176.734375,34.4152665 Z M184.849609,34.4152665 L186.900391,22.5695634 L191.119141,22.5695634 L191.539062,20.1965165 L180.289062,20.1965165 L179.869141,22.5695634 L184.039062,22.5695634 L181.988281,34.4152665 L184.849609,34.4152665 Z M200.826172,34.610579 C201.854818,34.6301102 202.810221,34.4185217 203.692383,33.9758134 C204.574544,33.533105 205.344401,32.8690425 206.001953,31.9836259 C206.659505,31.0982092 207.144531,30.0500321 207.457031,28.8390946 C207.769531,27.6281571 207.893229,26.4497717 207.828125,25.3039384 C207.769531,24.2752925 207.535156,23.3556962 207.125,22.5451493 C206.714844,21.7346024 206.151693,21.1128576 205.435547,20.6799149 C204.719401,20.2469722 203.882812,20.0207352 202.925781,20.001204 C201.884115,19.9816727 200.91569,20.1997717 200.020508,20.6555009 C199.125326,21.11123 198.345703,21.798079 197.681641,22.7160477 C197.017578,23.6340165 196.535807,24.6984696 196.236328,25.9094071 C195.936849,27.1203446 195.822917,28.2596675 195.894531,29.3273759 C195.959635,30.3690425 196.202148,31.2918941 196.62207,32.0959305 C197.041992,32.899967 197.611654,33.5152014 198.331055,33.9416337 C199.050456,34.368066 199.882161,34.5910477 200.826172,34.610579 Z M201.155208,32.221191 L200.953125,32.2180009 C200.171875,32.1919592 199.595703,31.868066 199.224609,31.2463212 C198.853516,30.6245764 198.700521,29.7375321 198.765625,28.5851884 C198.856771,26.6190425 199.252279,25.0890946 199.952148,23.9953446 C200.652018,22.9015946 201.597656,22.3742509 202.789062,22.4133134 C203.550781,22.439355 204.118815,22.751855 204.493164,23.3508134 C204.867513,23.9497717 205.022135,24.8286779 204.957031,25.9875321 L204.957031,25.9875321 L204.878906,26.9152665 L204.810547,27.4426102 C204.602214,28.985579 204.16276,30.1786128 203.492188,31.0217118 C202.821615,31.8648108 201.97526,32.2635738 200.953125,32.2180009 L201.155208,32.221191 Z M211.470703,34.4152665 L212.486328,28.6047196 L217.935547,28.6047196 L218.355469,26.2414384 L212.886719,26.2414384 L213.53125,22.5695634 L219.664062,22.5695634 L220.083984,20.1965165 L211.080078,20.1965165 L208.609375,34.4152665 L211.470703,34.4152665 Z M229.859375,34.4152665 L231.910156,22.5695634 L236.128906,22.5695634 L236.548828,20.1965165 L225.298828,20.1965165 L224.878906,22.5695634 L229.048828,22.5695634 L226.998047,34.4152665 L229.859375,34.4152665 Z M238.638672,34.4152665 L239.703125,28.3215165 L245.220703,28.3215165 L244.166016,34.4152665 L247.027344,34.4152665 L249.488281,20.1965165 L246.626953,20.1965165 L245.630859,25.9582352 L240.103516,25.9582352 L241.109375,20.1965165 L238.248047,20.1965165 L235.777344,34.4152665 L238.638672,34.4152665 Z M252.632812,34.4152665 L255.09375,20.1965165 L252.232422,20.1965165 L249.771484,34.4152665 L252.632812,34.4152665 Z M258.199219,34.4152665 L259.849609,24.9328446 L263.804688,34.4152665 L266.578125,34.4152665 L269.039062,20.1965165 L266.1875,20.1965165 L264.537109,29.6984696 L260.572266,20.1965165 L257.808594,20.1965165 L255.337891,34.4152665 L258.199219,34.4152665 Z M274.986328,34.6008134 C276.216797,34.6203446 277.32194,34.4559566 278.301758,34.1076493 C279.281576,33.759342 280.025391,33.2629227 280.533203,32.6183915 L280.533203,32.6183915 L281.392578,26.9445634 L275.962891,26.9445634 L275.582031,29.1027665 L278.179688,29.1027665 L277.701172,31.5539384 C277.017578,32.0422196 276.190755,32.2733394 275.220703,32.2472977 C274.38737,32.2342769 273.767253,31.9217769 273.360352,31.3097977 C272.953451,30.6978186 272.782552,29.8351884 272.847656,28.7219071 C272.945312,26.6385738 273.34082,25.0484045 274.03418,23.9513993 C274.727539,22.8543941 275.676432,22.3254227 276.880859,22.3644852 C277.577474,22.3905269 278.101562,22.5923498 278.453125,22.969954 C278.804688,23.3475581 279.016276,23.9334956 279.087891,24.7277665 L279.087891,24.7277665 L281.841797,24.7375321 C281.724609,23.2271154 281.246094,22.0666337 280.40625,21.2560868 C279.566406,20.4455399 278.404297,20.0272456 276.919922,20.001204 C275.826172,19.9816727 274.830078,20.2079097 273.931641,20.6799149 C273.033203,21.1519201 272.263346,21.8648108 271.62207,22.8185868 C270.980794,23.7723628 270.52832,24.8823889 270.264648,26.1486649 C270.000977,27.414941 269.901693,28.516829 269.966797,29.454329 C270.025391,30.4634436 270.266276,31.3618811 270.689453,32.1496415 C271.11263,32.9374019 271.692057,33.541243 272.427734,33.9611649 C273.163411,34.3810868 274.016276,34.5943029 274.986328,34.6008134 Z M287.642578,34.6203446 C288.632161,34.6398759 289.538737,34.4868811 290.362305,34.1613602 C291.185872,33.8358394 291.836914,33.368717 292.31543,32.759993 C292.793945,32.1512691 293.0625,31.4269852 293.121094,30.5871415 C293.244792,28.8683915 292.346354,27.5337561 290.425781,26.5832352 L290.425781,26.5832352 L289.683594,26.2414384 L288.394531,25.7531571 C287.320312,25.3364904 286.845052,24.7733394 286.96875,24.063704 C287.059896,23.5233394 287.346354,23.0985347 287.828125,22.7892899 C288.309896,22.4800451 288.876302,22.3319331 289.527344,22.344954 C290.191406,22.3579748 290.681315,22.5435217 290.99707,22.9015946 C291.312826,23.2596675 291.454427,23.7609696 291.421875,24.4055009 L291.421875,24.4055009 L294.273438,24.4055009 C294.286458,23.0773759 293.869792,22.0178055 293.023438,21.2267899 C292.177083,20.4357743 291.067057,20.0272456 289.693359,20.001204 C288.697266,19.9881831 287.769531,20.1558264 286.910156,20.5041337 C286.050781,20.852441 285.383464,21.3325842 284.908203,21.9445634 C284.432943,22.5565425 284.172526,23.2596675 284.126953,24.0539384 C284.016276,25.7661779 285.054688,27.110579 287.242188,28.0871415 L287.242188,28.0871415 L289.126953,28.8390946 C290.025391,29.2492509 290.40625,29.8416988 290.269531,30.6164384 C290.184896,31.1242509 289.917969,31.5311519 289.46875,31.8371415 C289.019531,32.1431311 288.446615,32.2961259 287.75,32.2961259 C286.141927,32.2700842 285.383464,31.485579 285.474609,29.9426102 L285.474609,29.9426102 L282.613281,29.9328446 C282.58724,30.8117509 282.766276,31.5930009 283.150391,32.2765946 C283.560547,33.0122717 284.159505,33.5819331 284.947266,33.985579 C285.735026,34.3892248 286.633464,34.6008134 287.642578,34.6203446 Z" id="INTERNETOFTHINGS" fill-rule="nonzero"></path>
                <g id="Group-4" transform="translate(0.000000, 8.000000)">
                    <path d="M12.5469993,-7.01433214e-14 L4.86923285,-7.01433214e-14 L2.67558528,10.7023411 L10.7023411,10.7023411 C16.9841501,10.6496202 18.729097,7.5390876 18.729097,4.63943852 C18.729097,2.58332372 17.532562,-7.01433214e-14 12.5469993,-7.01433214e-14 Z" id="Fill-1"></path>
                    <path d="M33.0598198,-7.01433214e-14 L25.3820534,-7.01433214e-14 L23.1884058,10.7023411 L31.165306,10.7023411 C37.4969706,10.6496202 39.2419175,7.5390876 39.2419175,4.63943852 C39.2419175,2.58332372 38.0453825,-7.01433214e-14 33.0598198,-7.01433214e-14 Z" id="Fill-3"></path>
                    <path d="M9.87141403,15.1616499 L2.19364756,15.1616499 L-2.24094247e-13,24.9721293 L7.97690023,24.9721293 C14.2587092,24.9721293 16.0535117,22.1066923 16.0535117,19.4355221 C16.0535117,17.5414197 14.8569767,15.1616499 9.87141403,15.1616499 Z" id="Fill-5"></path>
                    <path d="M30.3842345,15.1616499 L22.7064681,15.1616499 L20.5128205,24.9721293 L28.5395764,24.9721293 C34.7715297,24.9238018 36.5663322,22.0724802 36.5663322,19.4144686 C36.5663322,17.5296967 35.3697972,15.1616499 30.3842345,15.1616499 Z" id="Fill-7"></path>
                    <path d="M51.1067257,8.91861761 L43.8550309,8.91861761 L41.7837235,18.729097 L49.3174626,18.729097 C55.2498113,18.729097 56.9453735,15.8294479 56.9453735,13.1714363 C56.9453735,11.2866644 55.8153126,8.91861761 51.1067257,8.91861761 Z" id="Fill-9"></path>
                    <path d="M48.2214698,24.0802676 L40.5432047,24.0802676 L38.3500557,33.8907469 L46.326956,33.8907469 C52.6082663,33.8907469 54.4035674,30.9910979 54.4035674,28.3330862 C54.4035674,26.4487976 53.2070324,24.0802676 48.2214698,24.0802676 Z" id="Fill-12"></path>
                    <path d="M26.6830082,30.1895206 L19.0052418,30.1895206 L16.8115942,40 L24.7884944,40 C31.0703034,39.9511892 32.8651059,37.1003509 32.8651059,34.4423393 C32.8651059,32.5575674 31.6685709,30.1895206 26.6830082,30.1895206 Z" id="Fill-14"></path>
                </g>
                <rect id="Rectangle" x="77" y="0" width="2" height="55"></rect>
            </g>
        </g>
    </g>
</svg>