<?xml version="1.0" encoding="UTF-8"?>
<svg width="390px" height="55px" viewBox="0 0 390 55" version="1.1" xmlns="http://www.w3.org/2000/svg" xmlns:xlink="http://www.w3.org/1999/xlink">
    <title>critical_event_management</title>
    <g id="Page-1" stroke="none" stroke-width="1" fill="none" fill-rule="evenodd">
        <g id="Artboard" transform="translate(-741.000000, -2800.000000)" fill="#000000">
            <g id="critical_event_management" transform="translate(741.000000, 2800.000000)">
                <path d="M103.787505,34.6106771 C104.829172,34.6302083 105.799224,34.4365234 106.697661,34.0296224 C107.596099,33.6227214 108.325265,33.0400391 108.885161,32.2815755 C109.445057,31.523112 109.780343,30.6523438 109.891021,29.6692708 L109.891021,29.6692708 L107.049224,29.6888021 C106.879953,30.5221354 106.533273,31.1617839 106.009185,31.6077474 C105.485096,32.0537109 104.786854,32.2604167 103.914458,32.2278646 C103.282948,32.2083333 102.791411,31.9951172 102.439849,31.5882161 C102.088286,31.1813151 101.896229,30.5481771 101.863677,29.6888021 C101.837635,29.0117188 101.928781,27.9928385 102.137114,26.6321615 C102.351958,25.2324219 102.773508,24.1679688 103.401763,23.4388021 C104.030018,22.7096354 104.832427,22.3613281 105.808989,22.3938802 C106.564198,22.4199219 107.120838,22.641276 107.478911,23.0579427 C107.836984,23.4746094 108.016021,24.1321615 108.016021,25.030599 L108.016021,25.030599 L110.867583,25.0403646 C110.782948,23.4713542 110.309315,22.2457682 109.446685,21.3636068 C108.584054,20.4814453 107.417062,20.0273438 105.945708,20.0013021 C104.591541,19.9752604 103.387114,20.3398438 102.332427,21.0950521 C101.583729,21.6354167 100.93757,22.3678385 100.39395,23.2923177 C99.8503305,24.2167969 99.4727263,25.2747396 99.2611378,26.4661458 C99.0495492,27.6575521 98.9665414,28.6536458 99.0121143,29.4544271 C99.0641977,30.4765625 99.2904346,31.3798828 99.6908253,32.164388 C100.091216,32.9488932 100.639718,33.5478516 101.336333,33.961263 C102.032948,34.3746745 102.850005,34.5911458 103.787505,34.6106771 Z M113.953521,34.4153646 L114.861724,29.2102865 L117.185942,29.2102865 L118.86563,34.4153646 L121.912505,34.4153646 L121.912505,34.2591146 L119.910552,28.4876302 C121.857166,27.7259115 122.898833,26.3684896 123.035552,24.4153646 C123.133208,23.09375 122.757232,22.061849 121.907622,21.3196615 C121.058013,20.577474 119.845448,20.2063802 118.269927,20.2063802 L118.269927,20.2063802 L113.562896,20.1966146 L111.092192,34.4153646 L113.953521,34.4153646 Z M117.400786,26.8567708 L115.27188,26.8372396 L116.014067,22.5696615 L118.455474,22.5794271 C119.093495,22.6054688 119.558989,22.797526 119.851958,23.155599 C120.144927,23.5136719 120.245838,24.0084635 120.154692,24.639974 C120.057036,25.3170573 119.76244,25.8525391 119.270903,26.2464193 C118.779367,26.6402995 118.155995,26.84375 117.400786,26.8567708 L117.400786,26.8567708 Z M126.619536,34.4153646 L129.080474,20.1966146 L126.219146,20.1966146 L123.758208,34.4153646 L126.619536,34.4153646 Z M135.223052,34.4153646 L137.273833,22.5696615 L141.492583,22.5696615 L141.912505,20.1966146 L130.662505,20.1966146 L130.242583,22.5696615 L134.412505,22.5696615 L132.361724,34.4153646 L135.223052,34.4153646 Z M144.187896,34.4153646 L146.648833,20.1966146 L143.787505,20.1966146 L141.326567,34.4153646 L144.187896,34.4153646 Z M152.381255,34.6106771 C153.422922,34.6302083 154.392974,34.4365234 155.291411,34.0296224 C156.189849,33.6227214 156.919015,33.0400391 157.478911,32.2815755 C158.038807,31.523112 158.374093,30.6523438 158.484771,29.6692708 L158.484771,29.6692708 L155.642974,29.6888021 C155.473703,30.5221354 155.127023,31.1617839 154.602935,31.6077474 C154.078846,32.0537109 153.380604,32.2604167 152.508208,32.2278646 C151.876698,32.2083333 151.385161,31.9951172 151.033599,31.5882161 C150.682036,31.1813151 150.489979,30.5481771 150.457427,29.6888021 C150.431385,29.0117188 150.522531,27.9928385 150.730864,26.6321615 C150.945708,25.2324219 151.367258,24.1679688 151.995513,23.4388021 C152.623768,22.7096354 153.426177,22.3613281 154.402739,22.3938802 C155.157948,22.4199219 155.714588,22.641276 156.072661,23.0579427 C156.430734,23.4746094 156.609771,24.1321615 156.609771,25.030599 L156.609771,25.030599 L159.461333,25.0403646 C159.376698,23.4713542 158.903065,22.2457682 158.040435,21.3636068 C157.177804,20.4814453 156.010812,20.0273438 154.539458,20.0013021 C153.185291,19.9752604 151.980864,20.3398438 150.926177,21.0950521 C150.177479,21.6354167 149.53132,22.3678385 148.9877,23.2923177 C148.44408,24.2167969 148.066476,25.2747396 147.854888,26.4661458 C147.643299,27.6575521 147.560291,28.6536458 147.605864,29.4544271 C147.657948,30.4765625 147.884185,31.3798828 148.284575,32.164388 C148.684966,32.9488932 149.233468,33.5478516 149.930083,33.961263 C150.626698,34.3746745 151.443755,34.5911458 152.381255,34.6106771 Z M161.619536,34.4153646 L163.08438,31.4856771 L168.045317,31.4856771 L168.494536,34.4153646 L171.414458,34.4153646 L168.70938,20.1966146 L166.062896,20.1966146 L158.465239,34.4153646 L161.619536,34.4153646 Z M167.683989,29.1126302 L164.256255,29.1126302 L166.883208,23.8196615 L167.683989,29.1126302 Z M181.736724,34.4153646 L182.14688,32.061849 L176.111724,32.061849 L178.172271,20.1966146 L175.310942,20.1966146 L172.840239,34.4153646 L181.736724,34.4153646 Z M197.644927,34.4153646 L198.055083,32.061849 L191.648833,32.061849 L192.312896,28.2532552 L197.762114,28.2532552 L198.172271,25.9583333 L192.703521,25.9583333 L193.299224,22.5696615 L199.676177,22.5696615 L200.096099,20.1966146 L190.848052,20.1966146 L188.377349,34.4153646 L197.644927,34.4153646 Z M206.141021,34.4153646 L213.162505,20.1966146 L209.881255,20.1966146 L205.096099,30.8606771 L203.670317,20.1966146 L200.594146,20.1966146 L203.152739,34.4153646 L206.141021,34.4153646 Z M221.433989,34.4153646 L221.844146,32.061849 L215.437896,32.061849 L216.101958,28.2532552 L221.551177,28.2532552 L221.961333,25.9583333 L216.492583,25.9583333 L217.088286,22.5696615 L223.465239,22.5696615 L223.885161,20.1966146 L214.637114,20.1966146 L212.166411,34.4153646 L221.433989,34.4153646 Z M226.033599,34.4153646 L227.683989,24.9329427 L231.639067,34.4153646 L234.412505,34.4153646 L236.873442,20.1966146 L234.02188,20.1966146 L232.371489,29.6985677 L228.406646,20.1966146 L225.642974,20.1966146 L223.172271,34.4153646 L226.033599,34.4153646 Z M242.869536,34.4153646 L244.920317,22.5696615 L249.139067,22.5696615 L249.558989,20.1966146 L238.308989,20.1966146 L237.889067,22.5696615 L242.058989,22.5696615 L240.008208,34.4153646 L242.869536,34.4153646 Z M255.994536,34.4153646 L256.648833,30.6751302 L257.566802,23.6731771 L259.471099,34.4153646 L261.433989,34.4153646 L266.883208,24.0345052 L265.496489,30.3626302 L264.793364,34.4153646 L267.664458,34.4153646 L270.135161,20.1966146 L266.326567,20.1966146 L261.023833,30.4798177 L259.275786,20.1966146 L255.603911,20.1966146 L253.133208,34.4153646 L255.994536,34.4153646 Z M272.332427,34.4153646 L273.797271,31.4856771 L278.758208,31.4856771 L279.207427,34.4153646 L282.127349,34.4153646 L279.422271,20.1966146 L276.775786,20.1966146 L269.17813,34.4153646 L272.332427,34.4153646 Z M278.39688,29.1126302 L274.969146,29.1126302 L277.596099,23.8196615 L278.39688,29.1126302 Z M286.414458,34.4153646 L288.064849,24.9329427 L292.019927,34.4153646 L294.793364,34.4153646 L297.254302,20.1966146 L294.402739,20.1966146 L292.752349,29.6985677 L288.787505,20.1966146 L286.023833,20.1966146 L283.55313,34.4153646 L286.414458,34.4153646 Z M299.461333,34.4153646 L300.926177,31.4856771 L305.887114,31.4856771 L306.336333,34.4153646 L309.256255,34.4153646 L306.551177,20.1966146 L303.904692,20.1966146 L296.307036,34.4153646 L299.461333,34.4153646 Z M305.525786,29.1126302 L302.098052,29.1126302 L304.725005,23.8196615 L305.525786,29.1126302 Z M316.326567,34.6009115 C317.557036,34.6204427 318.662179,34.4560547 319.641997,34.1077474 C320.621815,33.7594401 321.36563,33.2630208 321.873442,32.6184896 L321.873442,32.6184896 L322.732817,26.9446615 L317.30313,26.9446615 L316.922271,29.1028646 L319.519927,29.1028646 L319.041411,31.5540365 C318.357817,32.0423177 317.530995,32.2734375 316.560942,32.2473958 C315.727609,32.234375 315.107492,31.921875 314.700591,31.3098958 C314.29369,30.6979167 314.122791,29.8352865 314.187896,28.7220052 C314.285552,26.6386719 314.68106,25.0485026 315.374419,23.9514974 C316.067778,22.8544922 317.016672,22.3255208 318.221099,22.3645833 C318.917713,22.390625 319.441802,22.5924479 319.793364,22.9700521 C320.144927,23.3476563 320.356515,23.9335938 320.42813,24.7278646 L320.42813,24.7278646 L323.182036,24.7376302 C323.064849,23.2272135 322.586333,22.0667318 321.746489,21.2561849 C320.906646,20.445638 319.744536,20.0273438 318.260161,20.0013021 C317.166411,19.9817708 316.170317,20.2080078 315.27188,20.680013 C314.373442,21.1520182 313.603586,21.8649089 312.96231,22.8186849 C312.321034,23.7724609 311.86856,24.882487 311.604888,26.148763 C311.341216,27.4150391 311.241932,28.5169271 311.307036,29.4544271 C311.36563,30.4635417 311.606515,31.3619792 312.029692,32.1497396 C312.45287,32.9375 313.032297,33.5413411 313.767974,33.961263 C314.503651,34.3811849 315.356515,34.594401 316.326567,34.6009115 Z M333.055083,34.4153646 L333.465239,32.061849 L327.058989,32.061849 L327.723052,28.2532552 L333.172271,28.2532552 L333.582427,25.9583333 L328.113677,25.9583333 L328.70938,22.5696615 L335.086333,22.5696615 L335.506255,20.1966146 L326.258208,20.1966146 L323.787505,34.4153646 L333.055083,34.4153646 Z M337.654692,34.4153646 L338.308989,30.6751302 L339.226958,23.6731771 L341.131255,34.4153646 L343.094146,34.4153646 L348.543364,24.0345052 L347.156646,30.3626302 L346.453521,34.4153646 L349.324614,34.4153646 L351.795317,20.1966146 L347.986724,20.1966146 L342.683989,30.4798177 L340.935942,20.1966146 L337.264067,20.1966146 L334.793364,34.4153646 L337.654692,34.4153646 Z M361.150786,34.4153646 L361.560942,32.061849 L355.154692,32.061849 L355.818755,28.2532552 L361.267974,28.2532552 L361.67813,25.9583333 L356.20938,25.9583333 L356.805083,22.5696615 L363.182036,22.5696615 L363.601958,20.1966146 L354.353911,20.1966146 L351.883208,34.4153646 L361.150786,34.4153646 Z M365.750396,34.4153646 L367.400786,24.9329427 L371.355864,34.4153646 L374.129302,34.4153646 L376.590239,20.1966146 L373.738677,20.1966146 L372.088286,29.6985677 L368.123442,20.1966146 L365.359771,20.1966146 L362.889067,34.4153646 L365.750396,34.4153646 Z M382.586333,34.4153646 L384.637114,22.5696615 L388.855864,22.5696615 L389.275786,20.1966146 L378.025786,20.1966146 L377.605864,22.5696615 L381.775786,22.5696615 L379.725005,34.4153646 L382.586333,34.4153646 Z" id="CRITICALEVENTMANAGEMENT" fill-rule="nonzero"></path>
                <rect id="Rectangle" x="77" y="0" width="2" height="55"></rect>
                <g id="Group-3-Copy-2" transform="translate(0.000000, 8.000000)">
                    <path d="M12.5469993,1.63060448e-13 L4.86923285,1.63060448e-13 L2.67558528,10.7023411 L10.7023411,10.7023411 C16.9841501,10.6496202 18.729097,7.5390876 18.729097,4.63943852 C18.729097,2.58332372 17.532562,1.63060448e-13 12.5469993,1.63060448e-13 Z" id="Fill-1"></path>
                    <path d="M33.0598198,1.63060448e-13 L25.3820534,1.63060448e-13 L23.1884058,10.7023411 L31.165306,10.7023411 C37.4969706,10.6496202 39.2419175,7.5390876 39.2419175,4.63943852 C39.2419175,2.58332372 38.0453825,1.63060448e-13 33.0598198,1.63060448e-13 Z" id="Fill-3"></path>
                    <path d="M9.87141403,15.1616499 L2.19364756,15.1616499 L2.42313292e-13,24.9721293 L7.97690023,24.9721293 C14.2587092,24.9721293 16.0535117,22.1066923 16.0535117,19.4355221 C16.0535117,17.5414197 14.8569767,15.1616499 9.87141403,15.1616499 Z" id="Fill-5"></path>
                    <path d="M30.3842345,15.1616499 L22.7064681,15.1616499 L20.5128205,24.9721293 L28.5395764,24.9721293 C34.7715297,24.9238018 36.5663322,22.0724802 36.5663322,19.4144686 C36.5663322,17.5296967 35.3697972,15.1616499 30.3842345,15.1616499 Z" id="Fill-7"></path>
                    <path d="M51.1067257,8.91861761 L43.8550309,8.91861761 L41.7837235,18.729097 L49.3174626,18.729097 C55.2498113,18.729097 56.9453735,15.8294479 56.9453735,13.1714363 C56.9453735,11.2866644 55.8153126,8.91861761 51.1067257,8.91861761 Z" id="Fill-9"></path>
                    <path d="M48.2214698,24.0802676 L40.5432047,24.0802676 L38.3500557,33.8907469 L46.326956,33.8907469 C52.6082663,33.8907469 54.4035674,30.9910979 54.4035674,28.3330862 C54.4035674,26.4487976 53.2070324,24.0802676 48.2214698,24.0802676 Z" id="Fill-12"></path>
                    <path d="M26.6830082,30.1895206 L19.0052418,30.1895206 L16.8115942,40 L24.7884944,40 C31.0703034,39.9511892 32.8651059,37.1003509 32.8651059,34.4423393 C32.8651059,32.5575674 31.6685709,30.1895206 26.6830082,30.1895206 Z" id="Fill-14"></path>
                </g>
            </g>
        </g>
    </g>
</svg>